<?xml version="1.0" standalone="no"?>
<!DOCTYPE svg PUBLIC "-//W3C//DTD SVG 20010904//EN"
 "http://www.w3.org/TR/2001/REC-SVG-20010904/DTD/svg10.dtd">
<svg version="1.0" xmlns="http://www.w3.org/2000/svg"
 width="237.000000pt" height="237.000000pt" viewBox="0 0 237.000000 237.000000"
 preserveAspectRatio="xMidYMid meet">
<metadata>
Created by potrace 1.11, written by Peter Selinger 2001-2013
</metadata>
<g transform="translate(0.000000,237.000000) scale(0.100000,-0.100000)"
fill="#000000" stroke="none">
<path d="M1310 2218 c-17 -58 -84 -190 -133 -263 -99 -147 -248 -297 -397
-400 -30 -20 -46 -34 -36 -31 57 19 247 167 376 292 l56 54 64 0 65 -1 -48
-42 c-36 -32 -45 -45 -36 -54 9 -9 20 -6 48 11 33 21 123 56 143 56 4 0 8 -9
8 -20 0 -17 -7 -20 -40 -20 -44 0 -100 -23 -100 -41 0 -18 33 -69 45 -69 6 0
21 7 34 16 16 12 20 19 12 27 -8 8 -15 5 -25 -9 -14 -18 -15 -18 -21 -1 -17
43 17 58 81 35 37 -13 65 1 63 31 -1 13 -2 13 -6 -1 -9 -36 -33 -11 -33 33 0
19 2 18 33 -5 19 -15 40 -26 48 -26 24 1 -59 70 -91 77 -39 7 -46 20 -25 43
21 23 38 16 30 -11 -12 -37 18 -18 152 97 88 77 132 122 129 131 -4 8 -6 22
-6 31 0 11 -10 6 -35 -18 -47 -45 -56 -31 -15 26 29 41 31 48 20 72 l-12 26
-31 -59 c-22 -43 -71 -100 -171 -200 -77 -76 -141 -134 -144 -127 -2 8 -27 12
-70 12 -58 0 -69 -3 -95 -27 -17 -16 -26 -21 -22 -13 16 30 38 50 56 50 22 0
57 40 142 163 57 81 68 103 62 125 l-6 26 -22 -34 c-27 -46 -26 -44 -34 -37
-3 4 2 25 12 46 17 38 15 71 -3 71 -5 0 -15 -19 -22 -42z m3 -104 c3 -3 -6
-24 -20 -45 -16 -25 -30 -36 -35 -31 -6 6 -1 24 14 46 23 36 30 41 41 30z
m294 -22 c9 -6 3 -17 -21 -41 -44 -43 -67 -32 -29 14 31 37 33 38 50 27z
m-383 -128 c-25 -32 -54 -49 -38 -21 24 40 47 66 55 62 5 -4 -3 -22 -17 -41z
m296 27 c0 -11 -61 -54 -68 -47 -8 9 49 66 60 60 4 -3 8 -9 8 -13z"/>
<path d="M1009 2074 c-64 -129 -140 -202 -284 -273 -60 -29 -112 -55 -113 -56
-2 -2 6 -17 19 -34 24 -33 49 -41 49 -16 0 17 16 20 25 5 9 -15 27 -1 21 16
-5 14 4 18 37 15 10 -2 17 5 17 14 0 11 7 15 23 13 14 -2 21 2 19 10 -1 7 34
35 78 63 44 28 80 55 80 61 0 10 -9 6 -53 -25 -16 -10 -31 -16 -35 -12 -4 4 4
15 18 24 107 70 194 177 182 223 l-5 22 -10 -22 c-10 -23 -27 -30 -27 -11 0 6
4 18 9 28 5 9 6 23 1 30 -5 10 -21 -14 -51 -75z m-134 -234 c-3 -5 -10 -10
-16 -10 -5 0 -9 5 -9 10 0 6 7 10 16 10 8 0 12 -4 9 -10z m-41 -25 c-4 -8 -10
-12 -15 -9 -14 8 -10 24 6 24 9 0 12 -6 9 -15z m-52 -18 c-6 -7 -34 -24 -61
-37 -28 -12 -49 -27 -48 -33 3 -16 -20 -19 -27 -2 -4 11 12 24 67 49 84 40 83
40 69 23z"/>
<path d="M1450 2120 c0 -5 5 -10 10 -10 6 0 10 5 10 10 0 6 -4 10 -10 10 -5 0
-10 -4 -10 -10z"/>
<path d="M1784 1981 c-101 -90 -174 -144 -313 -231 -100 -62 -178 -117 -173
-122 4 -4 58 14 120 42 61 27 117 50 123 50 7 0 9 10 7 24 -4 18 1 27 19 35
26 12 32 -3 7 -17 -10 -6 -12 -12 -6 -16 5 -3 89 32 186 79 l176 84 0 36 c0
40 -5 42 -40 15 -30 -23 -50 -26 -50 -6 0 8 20 27 45 43 40 25 45 32 45 66 0
20 -3 37 -7 36 -5 0 -67 -53 -139 -118z m29 -55 c4 -9 -9 -24 -33 -40 -31 -20
-39 -22 -44 -11 -3 9 8 24 32 40 43 29 39 28 45 11z m-103 -74 c0 -11 -16 -26
-45 -40 -60 -29 -62 -4 -2 32 51 31 47 30 47 8z m-210 -120 c0 -5 -11 -14 -25
-20 -31 -14 -33 1 -2 16 28 14 27 13 27 4z"/>
<path d="M1400 2060 c0 -5 4 -10 9 -10 6 0 13 5 16 10 3 6 -1 10 -9 10 -9 0
-16 -4 -16 -10z"/>
<path d="M1716 2015 c4 -8 10 -15 15 -15 5 0 9 7 9 15 0 8 -7 15 -15 15 -9 0
-12 -6 -9 -15z"/>
<path d="M1356 2011 c-3 -5 1 -11 9 -15 9 -3 15 0 15 9 0 16 -16 20 -24 6z"/>
<path d="M1652 1969 c2 -6 8 -10 13 -10 5 0 11 4 13 10 2 6 -4 11 -13 11 -9 0
-15 -5 -13 -11z"/>
<path d="M1257 1942 c-22 -24 -21 -32 2 -32 10 0 26 11 35 25 16 24 15 25 -2
25 -10 0 -26 -8 -35 -18z"/>
<path d="M1317 1935 c-17 -24 -17 -25 1 -25 18 0 52 29 52 43 0 17 -37 4 -53
-18z"/>
<path d="M1050 1932 c-51 -16 -55 -20 -58 -51 -3 -29 -1 -31 16 -22 10 5 24
17 32 25 14 17 35 22 25 6 -3 -5 1 -10 11 -10 16 0 34 17 55 53 13 22 -6 22
-81 -1z"/>
<path d="M452 1924 c-12 -8 -29 -29 -38 -45 l-15 -30 29 15 c26 13 32 13 63
-2 32 -16 34 -21 41 -81 11 -98 18 -104 35 -31 23 97 22 158 -1 176 -26 19
-86 18 -114 -2z"/>
<path d="M1582 1918 c6 -18 25 -20 31 -3 5 10 0 15 -14 15 -12 0 -19 -5 -17
-12z"/>
<path d="M1488 1889 c-25 -14 -24 -33 1 -20 14 8 23 5 41 -14 26 -28 29 -29
50 -15 12 7 11 13 -10 34 -25 27 -53 32 -82 15z"/>
<path d="M1022 1840 c-48 -26 -52 -27 -52 -9 0 25 -9 24 -45 -7 -29 -24 -29
-25 -5 -19 24 6 25 6 5 -10 l-20 -17 20 2 c11 1 24 2 30 1 12 -1 -60 -51 -73
-51 -12 0 -24 29 -16 41 9 15 24 10 18 -6 -5 -11 -2 -13 11 -9 15 6 15 8 1 23
-13 12 -20 13 -34 4 -9 -6 -16 -16 -14 -22 1 -7 -4 -14 -12 -17 -8 -3 -12 -12
-9 -20 3 -8 -1 -14 -11 -14 -9 0 -16 -8 -16 -20 0 -14 -6 -20 -17 -18 -12 2
-18 -4 -18 -17 0 -14 -6 -19 -20 -17 -18 4 -18 2 4 -22 l24 -25 103 98 c57 54
124 109 149 122 39 21 62 45 52 55 -1 2 -26 -10 -55 -26z"/>
<path d="M1495 1850 c-3 -5 1 -10 10 -10 9 0 13 5 10 10 -3 6 -8 10 -10 10 -2
0 -7 -4 -10 -10z"/>
<path d="M1525 1820 c-3 -5 1 -10 10 -10 9 0 13 5 10 10 -3 6 -8 10 -10 10 -2
0 -7 -4 -10 -10z"/>
<path d="M1441 1804 c0 -11 3 -14 6 -6 3 7 2 16 -1 19 -3 4 -6 -2 -5 -13z"/>
<path d="M408 1784 c-33 -17 -48 -43 -48 -81 0 -51 15 -58 38 -19 29 49 60 48
119 -4 47 -41 79 -56 43 -20 -10 10 -29 42 -41 70 -30 70 -58 83 -111 54z"/>
<path d="M1855 1790 c4 -6 11 -8 16 -5 14 9 11 15 -7 15 -8 0 -12 -5 -9 -10z"/>
<path d="M1125 1658 l-60 -132 -164 -33 c-90 -18 -165 -34 -167 -36 -2 -1 37
-18 87 -37 49 -19 89 -38 89 -41 0 -4 -21 -16 -47 -27 -54 -23 -52 -24 55 -46
41 -8 76 -16 78 -18 2 -3 -10 -75 -27 -162 -16 -87 -29 -160 -27 -162 2 -2 35
39 72 91 37 52 71 97 75 99 4 3 27 -75 51 -172 37 -152 45 -173 52 -147 5 17
25 101 46 188 l37 159 74 -106 c41 -59 75 -105 77 -103 2 1 -11 71 -28 155
-17 84 -29 154 -26 157 3 3 46 13 97 22 50 9 91 19 91 23 0 3 -24 16 -52 29
l-53 22 80 30 c44 16 87 32 95 35 8 4 -57 22 -145 41 -88 19 -163 38 -167 42
-4 4 -36 64 -70 134 l-63 128 -60 -133z m95 -49 c18 -50 39 -96 46 -104 7 -7
65 -21 128 -31 64 -9 113 -20 110 -23 -3 -3 -56 -25 -117 -48 l-112 -41 -40
-171 c-23 -94 -43 -173 -46 -175 -3 -3 -20 71 -38 164 -25 126 -37 170 -50
175 -9 4 -65 25 -126 47 -60 22 -113 43 -118 47 -4 4 44 15 105 25 62 9 120
19 129 22 10 3 28 36 44 82 16 42 32 87 36 100 5 12 10 22 13 22 2 0 18 -41
36 -91z"/>
<path d="M1798 1715 c-198 -67 -241 -85 -205 -85 9 0 17 -7 17 -15 0 -20 -27
-74 -49 -99 -15 -17 -15 -18 4 -15 10 2 30 20 42 39 12 19 27 40 31 45 5 6 79
19 164 30 150 18 156 19 172 46 22 37 21 38 -24 27 -23 -6 -43 -8 -46 -5 -12
12 7 25 51 36 45 11 60 26 53 53 -2 10 -58 -6 -210 -57z m82 -34 c0 -7 -73
-31 -94 -31 -17 0 -2 29 17 33 41 8 77 7 77 -2z m-130 -31 c0 -9 -61 -30 -87
-30 -26 0 -12 29 15 33 51 8 72 7 72 -3z"/>
<path d="M1770 1765 c0 -9 6 -12 15 -9 8 4 12 10 9 15 -8 14 -24 10 -24 -6z"/>
<path d="M1383 1743 c9 -9 20 -13 24 -9 4 4 1 11 -7 16 -25 16 -35 11 -17 -7z"/>
<path d="M1043 1692 c-87 -53 -91 -58 -67 -65 40 -14 129 37 148 85 8 21 14
38 13 38 -1 0 -44 -26 -94 -58z"/>
<path d="M1583 1722 c-24 -9 -43 -20 -43 -25 0 -5 6 -7 14 -4 8 3 33 11 56 17
22 6 38 15 35 20 -8 12 -11 12 -62 -8z"/>
<path d="M1690 1730 c0 -5 4 -10 9 -10 6 0 13 5 16 10 3 6 -1 10 -9 10 -9 0
-16 -4 -16 -10z"/>
<path d="M1583 1683 c-24 -8 -43 -19 -43 -25 0 -6 6 -8 14 -5 8 3 32 11 55 18
23 7 41 16 41 21 0 11 -16 9 -67 -9z"/>
<path d="M452 1667 c-6 -6 -14 -26 -18 -42 -7 -29 -7 -30 13 -12 26 23 58 22
94 -4 l29 -20 53 24 c28 14 61 32 72 41 16 12 9 12 -37 -4 -75 -26 -100 -25
-136 5 -33 28 -54 31 -70 12z"/>
<path d="M715 1650 c-13 -21 -111 -70 -140 -70 -16 0 -42 7 -57 14 -35 18 -36
3 -3 -29 33 -34 52 -32 121 13 54 36 106 82 91 82 -3 0 -9 -5 -12 -10z"/>
<path d="M1530 1617 c0 -8 -11 -35 -24 -60 -28 -56 -16 -62 18 -9 34 52 42 82
22 82 -9 0 -16 -6 -16 -13z"/>
<path d="M927 1576 c3 -23 10 -45 16 -51 6 -7 8 3 4 29 -6 38 -6 38 23 32 79
-16 95 -18 89 -12 -3 3 -36 15 -71 25 l-66 18 5 -41z"/>
<path d="M1388 1601 c-31 -9 -60 -20 -65 -25 -8 -8 1 -7 70 9 26 7 27 5 27
-29 0 -53 17 -44 22 12 3 26 4 47 4 48 -1 1 -27 -6 -58 -15z"/>
<path d="M885 1591 c-6 -6 -50 -33 -100 -62 -100 -57 -99 -57 33 -4 71 28 92
41 92 56 0 21 -10 25 -25 10z"/>
<path d="M1566 1584 c-10 -25 1 -29 14 -5 6 12 7 21 1 21 -5 0 -12 -7 -15 -16z"/>
<path d="M960 1562 c0 -34 13 -40 55 -27 41 12 40 14 -22 34 -28 9 -33 8 -33
-7z"/>
<path d="M1840 1565 c0 -16 16 -20 24 -6 3 5 -1 11 -9 15 -9 3 -15 0 -15 -9z"/>
<path d="M1351 1556 l-24 -13 33 -12 c46 -15 50 -14 50 14 0 28 -20 32 -59 11z"/>
<path d="M1670 1555 c0 -8 7 -15 15 -15 8 0 15 4 15 9 0 5 -7 11 -15 15 -9 3
-15 0 -15 -9z"/>
<path d="M1760 1560 c0 -6 7 -10 15 -10 8 0 15 2 15 4 0 2 -7 6 -15 10 -8 3
-15 1 -15 -4z"/>
<path d="M1535 1530 c-10 -11 -15 -23 -12 -27 7 -6 36 25 37 40 0 11 -6 8 -25
-13z"/>
<path d="M1835 1513 c-171 -11 -224 -16 -220 -22 3 -6 206 -37 225 -34 8 1 44
52 39 55 -2 2 -22 2 -44 1z"/>
<path d="M535 1371 c3 -5 22 -15 43 -21 67 -22 73 -45 7 -30 -55 13 -56 4 -1
-19 25 -11 46 -25 46 -32 0 -6 -7 -8 -16 -5 -9 3 -28 9 -42 12 -21 5 -24 4
-15 -6 9 -10 371 -120 395 -120 5 0 8 9 8 20 0 11 -6 20 -12 20 -7 0 -30 5
-50 11 -43 11 -54 35 -12 25 81 -21 82 -21 92 15 7 27 5 35 -7 40 -21 8 -31 2
-31 -19 0 -14 2 -15 10 -2 12 19 23 7 16 -18 -6 -18 -11 -19 -49 -9 -56 13
-75 31 -23 21 68 -12 37 18 -44 43 -79 24 -96 25 -55 3 42 -22 28 -32 -15 -10
-46 24 -55 10 -10 -17 17 -9 30 -21 30 -25 0 -12 -8 -10 -36 8 -13 9 -27 14
-31 11 -3 -4 12 -16 32 -29 45 -26 31 -37 -17 -12 -39 20 -59 45 -74 93 -11
37 -8 36 -112 55 -19 3 -31 2 -27 -3z"/>
<path d="M1776 1366 c-56 -10 -60 -13 -73 -50 -15 -46 -37 -72 -75 -92 -49
-25 -65 -15 -20 12 24 14 41 28 38 31 -3 3 -17 -2 -31 -11 -15 -10 -32 -15
-38 -13 -7 2 5 14 26 27 50 30 48 46 -3 20 -45 -23 -54 -14 -12 14 15 9 19 15
9 12 -10 -3 -47 -14 -83 -23 -40 -11 -64 -22 -64 -31 0 -11 9 -13 38 -8 26 5
32 4 21 -3 -9 -6 -35 -13 -57 -17 -39 -6 -42 -5 -42 16 0 19 2 20 15 10 16
-13 18 -10 9 13 -3 9 -13 13 -25 10 -15 -4 -17 -11 -13 -32 10 -41 19 -45 70
-32 47 12 70 7 44 -9 -8 -5 -32 -12 -52 -15 -29 -5 -38 -12 -38 -26 0 -10 3
-19 8 -19 24 0 386 110 395 120 9 10 6 11 -15 6 -14 -3 -33 -9 -42 -12 -9 -3
-16 -1 -16 5 0 7 21 21 46 32 54 23 53 35 -2 20 -66 -18 -59 7 9 29 20 6 37
16 37 21 0 5 -1 9 -2 8 -2 -1 -30 -6 -62 -13z"/>
<path d="M570 1237 c0 -9 121 -217 129 -221 8 -6 108 91 100 97 -2 3 -22 7
-44 11 -39 7 -40 7 -17 -9 l23 -17 -22 -24 c-12 -13 -25 -24 -29 -24 -4 0 -18
27 -33 60 -14 33 -22 60 -19 60 8 0 59 -13 141 -36 l54 -16 -42 -36 -41 -37
21 -77 c12 -43 25 -78 30 -78 11 0 12 -6 -6 60 -17 65 -18 73 -6 65 5 -3 15
-30 22 -61 7 -30 19 -62 26 -72 13 -16 14 -15 9 3 -3 11 -8 38 -12 59 -11 62
13 34 27 -32 12 -56 24 -82 39 -82 4 0 -7 47 -23 105 l-30 106 42 43 43 44
-34 10 c-18 6 -100 30 -183 53 -82 23 -153 43 -157 46 -5 2 -8 2 -8 0z"/>
<path d="M1660 1196 c-63 -18 -142 -41 -174 -50 l-59 -17 42 -43 43 -44 -30
-103 c-16 -57 -27 -106 -25 -109 10 -10 31 33 37 74 4 24 14 52 22 62 14 18
15 17 10 -12 -3 -18 -8 -44 -12 -59 -4 -18 -3 -26 3 -22 5 3 18 36 28 72 9 36
21 68 26 71 11 7 12 9 -6 -56 -17 -65 -18 -70 -6 -70 5 0 18 36 29 80 l20 80
-40 31 c-22 18 -36 35 -31 39 11 10 176 50 182 44 3 -2 -7 -30 -23 -61 l-27
-56 -24 23 c-23 22 -24 25 -8 42 15 17 15 18 -18 12 -19 -4 -36 -9 -39 -11 -2
-2 19 -27 47 -55 l51 -51 56 95 c66 114 73 128 55 127 -8 0 -66 -15 -129 -33z"/>
<path d="M1070 1095 c0 -28 113 -465 120 -459 12 13 118 460 110 468 -5 5 -14
-10 -20 -35 -13 -47 -89 -328 -93 -343 -2 -5 -25 74 -51 175 -48 184 -65 235
-66 194z"/>
<path d="M825 850 c6 -10 78 -50 90 -50 15 0 -10 22 -45 40 -44 22 -54 25 -45
10z"/>
<path d="M1508 840 c-34 -18 -58 -40 -43 -40 12 0 84 40 90 50 9 15 -5 12 -47
-10z"/>
<path d="M842 798 c2 -15 10 -23 23 -23 27 0 42 -11 48 -35 5 -18 4 -19 -16
-5 -12 8 -25 15 -30 15 -16 0 16 -32 40 -41 20 -7 23 -15 23 -66 0 -50 -2 -55
-14 -43 -19 19 -32 70 -18 70 6 0 13 -8 15 -17 4 -15 5 -16 6 -2 0 9 -11 25
-25 34 -27 17 -27 17 -20 -6 4 -13 9 -38 13 -55 5 -30 47 -63 61 -49 10 9 -18
168 -33 192 -8 12 -29 30 -46 38 -30 16 -31 16 -27 -7z"/>
<path d="M1505 802 c-16 -11 -36 -26 -43 -34 -11 -14 -43 -187 -36 -196 1 -2
15 2 30 10 18 8 31 24 35 43 4 17 11 41 15 55 7 24 7 25 -17 9 -13 -9 -25 -25
-26 -35 -2 -14 -1 -14 7 4 14 33 23 27 15 -10 -7 -33 -22 -58 -34 -58 -3 0 -4
25 -1 55 4 46 9 58 29 68 14 7 27 19 29 27 4 11 0 11 -21 -3 -31 -20 -34 -12
-11 21 11 16 22 21 35 17 12 -4 21 -1 25 9 11 29 -1 36 -31 18z"/>
<path d="M969 582 c3 -32 15 -48 100 -121 106 -93 116 -99 124 -77 6 14 -34
56 -178 188 l-50 46 4 -36z"/>
<path d="M1303 512 c-56 -42 -101 -81 -99 -86 1 -5 9 -14 17 -19 12 -8 39 8
113 63 75 57 94 75 82 82 -8 5 -13 15 -10 23 4 8 5 15 3 15 -2 -1 -50 -35
-106 -78z"/>
<path d="M1172 551 c-9 -26 -9 -38 2 -59 l14 -27 13 28 c10 23 10 33 -3 59
l-15 32 -11 -33z"/>
<path d="M1442 534 c-28 -20 -28 -28 3 -42 24 -11 25 -10 25 23 0 40 1 40 -28
19z"/>
<path d="M900 516 c0 -26 14 -33 38 -17 11 6 11 10 0 18 -32 24 -38 24 -38 -1z"/>
<path d="M980 451 c0 -29 1 -30 31 -19 l32 11 -24 18 c-33 25 -39 24 -39 -10z"/>
<path d="M1361 463 l-21 -18 25 -12 c24 -10 25 -10 25 18 0 34 -1 34 -29 12z"/>
<path d="M1060 400 c0 -22 1 -23 24 -14 13 5 14 9 5 20 -16 20 -29 17 -29 -6z"/>
<path d="M1281 406 c-10 -12 -8 -17 8 -26 19 -9 21 -8 21 15 0 28 -12 32 -29
11z"/>
<path d="M1194 365 c-4 -8 -1 -21 5 -28 8 -10 1 -23 -29 -52 -22 -22 -40 -42
-40 -45 0 -4 16 -25 36 -48 23 -27 34 -48 30 -59 -5 -13 -4 -14 9 -3 21 18 18
30 -15 69 l-29 34 51 59 c48 56 50 60 32 73 -25 19 -43 19 -50 0z"/>
<path d="M1111 357 c-8 -10 -4 -20 18 -41 30 -28 40 -26 37 9 -4 43 -32 59
-55 32z"/>
<path d="M1200 263 c0 -5 4 -15 10 -23 5 -9 5 -19 -2 -27 -19 -23 2 -28 24 -5
21 21 21 22 3 42 -18 20 -35 26 -35 13z"/>
<path d="M1150 149 c-7 -11 -10 -22 -8 -23 2 -1 10 -7 19 -13 13 -10 15 -7 15
22 0 40 -10 45 -26 14z"/>
</g>
</svg>
