<svg xmlns="http://www.w3.org/2000/svg" width="102.318" height="97.41" viewBox="0 0 102.318 97.41"><g transform="translate(-104.69 -205.59)"><path d="M-7.087-50.41,22.484-19.38l15.04-27.74L47-11.932l23.3-14.774L58.979,8.578,76.008,3.872,61.539,34.721l11.743-1.832L56,47H0L-17.1,32.889l12.96,1.832L-26.31-2.844,0,0Z" transform="translate(131 256)" fill="#946f54"/><path d="M-1.628,0-3.56-33.462,17.306-10.728,33-25.786,31.309,0l16.1-4.976L33,24H0L-13.5-3.072Z" transform="translate(142 279)" fill="#7a4823"/><path d="M0,0-4.154-28.054,10.555-8.849,21.089-20.975,18.744,0,31.483-6.569,18.744,16H-2.207L-11.423-3.093Z" transform="translate(149 287)" fill="#cb966e"/></g></svg>