<svg xmlns="http://www.w3.org/2000/svg" width="96.464" height="91.884" viewBox="0 0 96.464 91.884"><g transform="translate(-417.404 -389.645)"><path d="M40.627,5.463,64.868-7.355,53.092,17.25,37.344,24.71,30.932,39.739l-15.19,6.615L5.4,53.529l6.611-11.3,6.335-13.38,14.716-7.125Z" transform="translate(449 428)" fill="#945359"/><path d="M45.131,1.813,64.868-7.355,56,13.212l-17.419,9.1L32.826,36.736,12.946,47.563,7,62.068l-23.393,11.96L-4.727,50.685l15.107-5.967L21.222,25.4l14.531-6.536Z" transform="translate(440 403)" fill="#945359"/><path d="M40.941,5.517,64.868-7.355,53.092,17.25,37.344,24.71,30.932,39.739l-15.19,6.615L5.4,53.529l6.611-11.3,6.335-13.38,14.716-7.125Z" transform="translate(412 397)" fill="#945359"/></g></svg>