<svg xmlns="http://www.w3.org/2000/svg" width="85" height="100" viewBox="0 0 85 100"><g transform="translate(-508 -750)"><g transform="translate(508 750)" fill="#a48b71"><path d="M 59.91381072998047 99 L 26.17038154602051 99 L 1 71.50131988525391 L 1 1 L 84 1 L 84 71.51372528076172 L 59.91381072998047 99 Z" stroke="none"/><path d="M 2 2 L 2 71.11274719238281 L 26.6107177734375 98 L 59.46047973632812 98 L 83 71.13755798339844 L 83 2 L 2 2 M 0 0 L 85 0 L 85 71.88986968994141 L 60.36712646484375 100 L 25.73005676269531 100 L 0 71.88986968994141 L 0 0 Z" stroke="none" fill="#060200"/></g><g transform="translate(534 766)" fill="#b33741"><path d="M 16.17123413085938 29.9141788482666 L -5.212332725524902 8.44743824005127 L 9.348391532897949 8.44743824005127 L 9.848391532897949 8.44743824005127 L 9.848391532897949 7.947437763214111 L 9.848391532897949 0.4999979436397552 L 23.5904712677002 0.4999979436397552 L 23.5904712677002 7.947437763214111 L 23.5904712677002 8.44743824005127 L 24.0904712677002 8.44743824005127 L 38.69416427612305 8.44743824005127 L 16.17123413085938 29.9141788482666 Z" stroke="none"/><path d="M 10.34839248657227 0.9999980926513672 L 10.34839248657227 7.947437286376953 L 10.34839248657227 8.947437286376953 L 9.348392486572266 8.947437286376953 L -4.008537292480469 8.947437286376953 L 16.18030738830566 29.21480751037598 L 37.44485473632812 8.947437286376953 L 24.09047317504883 8.947437286376953 L 23.09047317504883 8.947437286376953 L 23.09047317504883 7.947437286376953 L 23.09047317504883 0.9999980926513672 L 10.34839248657227 0.9999980926513672 M 9.348392486572266 -1.9073486328125e-06 L 24.09047317504883 -1.9073486328125e-06 L 24.09047317504883 7.947437286376953 L 39.9434814453125 7.947437286376953 L 16.16216278076172 30.61355781555176 L -6.4161376953125 7.947437286376953 L 9.348392486572266 7.947437286376953 L 9.348392486572266 -1.9073486328125e-06 Z" stroke="none" fill="#6b352e"/></g><g transform="translate(534 803)" fill="#b33741"><path d="M 16.17123413085938 29.9141788482666 L -5.212332725524902 8.44743824005127 L 9.348391532897949 8.44743824005127 L 9.848391532897949 8.44743824005127 L 9.848391532897949 7.947437763214111 L 9.848391532897949 0.4999979436397552 L 23.5904712677002 0.4999979436397552 L 23.5904712677002 7.947437763214111 L 23.5904712677002 8.44743824005127 L 24.0904712677002 8.44743824005127 L 38.69416427612305 8.44743824005127 L 16.17123413085938 29.9141788482666 Z" stroke="none"/><path d="M 10.34839248657227 0.9999980926513672 L 10.34839248657227 7.947437286376953 L 10.34839248657227 8.947437286376953 L 9.348392486572266 8.947437286376953 L -4.008537292480469 8.947437286376953 L 16.18030738830566 29.21480751037598 L 37.44485473632812 8.947437286376953 L 24.09047317504883 8.947437286376953 L 23.09047317504883 8.947437286376953 L 23.09047317504883 7.947437286376953 L 23.09047317504883 0.9999980926513672 L 10.34839248657227 0.9999980926513672 M 9.348392486572266 -1.9073486328125e-06 L 24.09047317504883 -1.9073486328125e-06 L 24.09047317504883 7.947437286376953 L 39.9434814453125 7.947437286376953 L 16.16216278076172 30.61355781555176 L -6.4161376953125 7.947437286376953 L 9.348392486572266 7.947437286376953 L 9.348392486572266 -1.9073486328125e-06 Z" stroke="none" fill="#6b352e"/></g></g></svg>