<svg xmlns="http://www.w3.org/2000/svg" width="96" height="97" viewBox="0 0 96 97"><g transform="translate(-54 -338)"><g transform="translate(-1)"><path d="M0,0H64a4,4,0,0,1,4,4V23a0,0,0,0,1,0,0H0a0,0,0,0,1,0,0V0A0,0,0,0,1,0,0Z" transform="translate(83 338)" fill="#c5bc81"/><circle cx="11.5" cy="11.5" r="11.5" transform="translate(72 338)" fill="#c5bc81"/><path d="M0,0H82a2,2,0,0,1,2,2V23a0,0,0,0,1,0,0H0a0,0,0,0,1,0,0V0A0,0,0,0,1,0,0Z" transform="translate(151 351) rotate(90)" fill="#c5bc81"/><path d="M0,0H91a4,4,0,0,1,4,4v6.5a4,4,0,0,1-4,4H0a0,0,0,0,1,0,0V0A0,0,0,0,1,0,0Z" transform="translate(55.5 420.5)" fill="#c5bc81"/><path d="M0,0H63a2,2,0,0,1,2,2V16a0,0,0,0,1,0,0H0a0,0,0,0,1,0,0V0A0,0,0,0,1,0,0Z" transform="translate(55 435) rotate(-90)" fill="#c5bc81"/><path d="M0,0H29a0,0,0,0,1,0,0V8a2,2,0,0,1-2,2H0a0,0,0,0,1,0,0V0A0,0,0,0,1,0,0Z" transform="translate(109 421) rotate(-90)" fill="#c5bc81"/><circle cx="6" cy="6" r="6" transform="translate(96 392)" fill="#c5bc81"/><rect width="16" height="12" transform="translate(101 392)" fill="#c5bc81"/><circle cx="8" cy="8" r="8" transform="translate(86 370)" fill="#c5bc81"/><rect width="25" height="16" transform="translate(69 370)" fill="#c5bc81"/><circle cx="8.5" cy="8.5" r="8.5" transform="translate(105 370)" fill="#c5bc81"/><rect width="16" height="17" transform="translate(113 370)" fill="#c5bc81"/><circle cx="6" cy="6" r="6" transform="translate(78 397)" fill="#c5bc81"/><rect width="16" height="12" transform="translate(69 397)" fill="#c5bc81"/></g><rect width="10" height="10" transform="translate(83 343)" fill="#91821d"/><rect width="6" height="6" transform="translate(104 351)" fill="#91821d"/><rect width="9" height="9" transform="translate(127 343)" fill="#91821d"/><rect width="8" height="8" transform="translate(114 374)" fill="#91821d"/><rect width="8" height="8" transform="translate(139 361)" fill="#91821d"/><rect width="6" height="6" transform="translate(135 383)" fill="#91821d"/><rect width="4" height="4" transform="translate(143 397)" fill="#91821d"/><rect width="5" height="5" transform="translate(120 427)" fill="#91821d"/><rect width="8" height="8" transform="translate(133 412)" fill="#91821d"/><rect width="8" height="8" transform="translate(58 411)" fill="#91821d"/><rect width="5" height="5" transform="translate(79 425)" fill="#91821d"/><rect width="8" height="8" transform="translate(102 423)" fill="#91821d"/><rect width="4" height="4" transform="translate(111 410)" fill="#91821d"/><rect width="7" height="7" transform="translate(108 395)" fill="#91821d"/><rect width="5" height="5" transform="translate(66 399)" fill="#91821d"/><rect width="8" height="8" transform="translate(78 375)" fill="#91821d"/><rect width="5" height="5" transform="translate(66 373)" fill="#91821d"/><rect width="3" height="3" transform="translate(92 375)" fill="#91821d"/></g></svg>