<svg xmlns="http://www.w3.org/2000/svg" width="81.588" height="100.173" viewBox="0 0 81.588 100.173"><g transform="translate(-506 -192.827)"><path d="M81.168-28.942c2.523,1.559-6.871,6.5-13.341,13.581C61.229-8.139,56.361.749,60.135,3.669c3,2.32,9.217,6.079,12.636,10.022C78.161,19.9,80,28.726,80,35.5,80,55.106,62.091,71,40,71S0,55.106,0,35.5C0,25.971,6.183,4.995,22.434-8.624A93.462,93.462,0,0,1,54.351-25.764C64.662-28.894,75.369-29.614,81.168-28.942Z" transform="translate(506 222)" fill="#a4575d"/><path d="M19.5,1.6c2.113,0,10.107.435,15.782,4.1,6.655,4.3,10.863,12.2,9.443,13.9-.446.536-2.238.289-5.031-.437-1.358-.351-3.32-.956-5.406-1.625-.187-.06-.373-.124-.849-.3-1.788-.65-3.812-1.862-6.152-2.595a37.918,37.918,0,0,0-5.6-.868,7.188,7.188,0,0,0-2.2,0,9.1,9.1,0,0,0-3.069,1.107c-1.966,1.061-3.581,3.1-3.581,4.717,0,.963.11,5.961,3.127,6.972,3.684,1.235,6.976-3.338,8.091-3.594,5.61,2.02,2.039,13.373-6.3,13.373A29.033,29.033,0,0,1,6.689,33.572c-2.038-1.025-3.464-3.106-4.632-4.733C.3,26.417,0,23.855,0,19,0,8.507,8.73,1.6,19.5,1.6Z" transform="translate(525 239)" fill="#792c32"/><path d="M25.092,26.894c1.32,0,7.316-2.316,11.589-6.631,3.259-3.289,5-8.365,4.809-11.408-.113-1.844.472-4.592-1.147-6.6A6.674,6.674,0,0,0,38.145,0c-.541-.276-1.724-1.671-1.464-2.237,1.6-3.491,11.05-.851,13.5,2.237,2.2,2.776,1.563,14.1,1.563,16.3.588,5.133-11.82,16.7-20.466,17.9a172.584,172.584,0,0,1-17.555,1.243,9.993,9.993,0,0,1-1.1-.069A14.808,14.808,0,0,1,7.658,33.54,35.49,35.49,0,0,1,.133,28.716c-1.118-.979-2.487-2.069-3.955-3.582a32.672,32.672,0,0,1-4.693-6.161c-.973-1.722-2.6-4.674-2.6-6.322,0-4.382,3.618,7.594,14.811,11.2A67.584,67.584,0,0,0,25.092,26.894Z" transform="translate(519 255)" fill="#792c32"/></g></svg>