<svg xmlns="http://www.w3.org/2000/svg" width="72.246" height="103.827" viewBox="0 0 72.246 103.827"><g transform="translate(-222.743 -139.584)"><g transform="translate(-106 59)"><path d="M0-.479,23.292-19.416,46.209-.479V31.51L23.292,51,0,31.51Z" transform="translate(328.743 100)" fill="#7caaaa"/><path d="M0-8.454,12.6-19.416,25-8.454V16.872L12.6,27.411,0,16.872Z" transform="translate(339.743 112)" fill="#3a7070"/><path d="M0-12.855l7.057-6.561L14-12.855V2.3L7.057,8.612,0,2.3Z" transform="translate(345.254 121)" fill="#7cacac"/></g><g transform="translate(-46 1)"><path d="M0-5.751,16.758-19.416,33.246-5.751V16.514L16.758,30.07,0,16.514Z" transform="translate(307.743 212.341)" fill="#7caaaa"/><path d="M0-13.679l8.065-5.737L16-13.679V-.426L8.065,5.09,0-.426Z" transform="translate(316.254 224.545)" fill="#3d7071"/></g></g></svg>