<svg xmlns="http://www.w3.org/2000/svg" width="74" height="98.927" viewBox="0 0 74 98.927"><g transform="translate(-316 -359.073)"><g transform="translate(0 -1)"><path d="M34.186-11.944C46.889-11.944,46,10.745,46,24S35.7,48,23,48,0,37.255,0,24,21.484-11.944,34.186-11.944Z" transform="translate(316 411)" fill="#7391ab"/><path d="M12.206-11.742C24.908-11.742,46,10.745,46,24S35.7,48,23,48,0,37.255,0,24-.5-11.742,12.206-11.742Z" transform="translate(344 411)" fill="#7391ab"/><rect width="41" height="47" rx="8" transform="translate(333 412)" fill="#7391ab"/><path d="M18-36.138c.794,0,1.481.48,2.26,1.587,3.017,4.222,4.019,18.971,6.817,28.468C30.271,4.757,36,8.16,36,11.33c0,6.329-8.059,11.459-18,11.459S0,17.659,0,11.33C0,8.539,7.546,4,10.222-6.083,13.452-18.257,12.443-36.138,18-36.138Z" transform="translate(335 396.211)" fill="#7391ab"/></g><path d="M22,0C34.15,0,44,7.267,44,16.231S34.15,32.461,22,32.461,0,25.195,0,16.231,9.85,0,22,0Z" transform="translate(331 417.415)" fill="#476a90"/><path d="M22,0C34.15,0,44,7.267,44,16.231S34.15,32.461,22,32.461,0,25.195,0,16.231,9.85,0,22,0Z" transform="translate(331 410.415)" fill="#7391ab"/></g></svg>