<svg xmlns="http://www.w3.org/2000/svg" width="78.089" height="100.588" viewBox="0 0 78.089 100.588"><g transform="translate(-591 -823)"><path d="M0,0H19.452s7.34,1.263,14.49,14.483c3.1,5.737,9.568,17.751,13.875,22.167,2.01,2.062,6.009,2.123,10.043,2.283,2.128.085,7.887-.512,10.448-2.283,1.949-1.794,1.821-13.38,1.482-21.558A19.173,19.173,0,0,1,70.888,8a7.091,7.091,0,0,1,3.851,1.618,11.4,11.4,0,0,1,3.185,4.862s.848,23.477-1.3,27.368S69.4,46.588,69.4,46.588H44.266s-2.173-.72-5.77-5.539c-3.335-4.467-8.426-14.454-11.709-20.227C20.3,9.412,15.876,8.859,15.876,8.859l-3.4-.826H0Z" transform="translate(591 823)" fill="#82b16b"/><path d="M.257.313C6.348-.875,18,0,18,0s3.271,12.538,0,9.777S8.2,6.636,4.159,8.41,1.2,13.279,1.887,15.161s3.31,1.512,5.016.776.925-3.454,2.275-2.944,1.181,4.589,1.181,4.589a9.032,9.032,0,0,1-1.468,3.639,6.542,6.542,0,0,1-3.068,1.755H0a17.869,17.869,0,0,1-4.015-3.2A10.2,10.2,0,0,1-6,15.937L-6.364,4.752S-5.834,1.5.257.313Z" transform="translate(644 831)" fill="#82b16b"/><g transform="translate(0 54)"><path d="M0,0H19.452s7.34,1.263,14.49,14.483c3.1,5.737,9.568,17.751,13.875,22.167,2.01,2.062,6.009,2.123,10.043,2.283,2.128.085,7.887-.512,10.448-2.283,1.949-1.794,1.821-13.38,1.482-21.558A19.173,19.173,0,0,1,70.888,8a7.091,7.091,0,0,1,3.851,1.618,11.4,11.4,0,0,1,3.185,4.862s.848,23.477-1.3,27.368S69.4,46.588,69.4,46.588H44.266s-2.173-.72-5.77-5.539c-3.335-4.467-8.426-14.454-11.709-20.227C20.3,9.412,15.876,8.859,15.876,8.859l-3.4-.826H0Z" transform="translate(591 823)" fill="#82b16b"/><path d="M.257.313C6.348-.875,18,0,18,0s3.271,12.538,0,9.777S8.2,6.636,4.159,8.41,1.2,13.279,1.887,15.161s3.31,1.512,5.016.776.925-3.454,2.275-2.944,1.181,4.589,1.181,4.589a9.032,9.032,0,0,1-1.468,3.639,6.542,6.542,0,0,1-3.068,1.755H0a17.869,17.869,0,0,1-4.015-3.2A10.2,10.2,0,0,1-6,15.937L-6.364,4.752S-5.834,1.5.257.313Z" transform="translate(644 831)" fill="#82b16b"/></g></g></svg>